HIERARCHY
ROOT Hips
{
	OFFSET 0.00000 0.00000 0.00000
	CHANNELS 6 Xposition Yposition Zposition Yrotation Zrotation Xrotation 
	JOINT Lumbar
	{
		OFFSET 0 0 0
		CHANNELS 3 Zrotation Xrotation Yrotation
		JOINT Neck
		{
			OFFSET 0.00 0.2701 0.00
			CHANNELS 3 Zrotation Xrotation Yrotation
			End Site
			{
				OFFSET 0.00 0.1379 0.00
			}
		}
		JOINT RightShoulder
		{
			OFFSET 0.0119 0.2289 0.1181
			CHANNELS 3 Zrotation Xrotation Yrotation
			JOINT RightElbow
			{
				OFFSET 0.00 -0.1475 0.00
				CHANNELS 2 Zrotation Yrotation
				JOINT RightWrist
				{
					OFFSET 0.00 -0.1605 0.00
					CHANNELS 2 Zrotation Xrotation
					End Site
					{
						OFFSET 0.0040 -0.1068 0.0006
					}
				}
			}
		}
		JOINT LeftShoulder
		{
			OFFSET 0.0119 0.2289 -0.1181
			CHANNELS 3 Zrotation Xrotation Yrotation
			JOINT LeftElbow
			{
				OFFSET 0.00 -0.1475 0.00
				CHANNELS 2 Zrotation Yrotation
				JOINT LeftWrist
				{
					OFFSET 0.00 -0.1605 0.00
					CHANNELS 2 Zrotation Xrotation
					End Site
					{
						OFFSET 0.0040 -0.1068 -0.0006
					}
				}
			}
		}
	}
	JOINT RightHip
	{
		OFFSET 0.0316 -0.0424 0.0458
		CHANNELS 3 Zrotation Xrotation Yrotation
		JOINT RightKnee
		{
			OFFSET 0.00 -0.2438 0.00
			CHANNELS 1 Zrotation
			JOINT RightAnkle
			{
				OFFSET 0.00 -0.2449 0.00
				CHANNELS 3 Zrotation Xrotation Yrotation
				End Site
				{
					OFFSET 0.1237 -0.0542 0.0051
				}
			}
		}
	}
	JOINT LeftHip
	{
		OFFSET 0.0316 -0.0424 -0.0458
		CHANNELS 3 Zrotation Xrotation Yrotation
		JOINT LeftKnee
		{
			OFFSET 0.00 -0.2438 0.00
			CHANNELS 1 Zrotation
			JOINT LeftAnkle
			{
				OFFSET 0.00 -0.2449 0.00
				CHANNELS 3 Zrotation Xrotation Yrotation
				End Site
				{
					OFFSET 0.1237 -0.0542 -0.0051
				}
			}
		}
	}
}
MOTION
Frames: 11
Frame Time: 0.02
0.30706 -0.19218 -0.01907 -175.52087 13.25201 -0.57632 10.41753 1.92506 -0.16045 -34.05789 0.89971 -0.83078 -42.9738 -22.30285 7.33514 68.75985 96.83403 7.77472 1.5948 -53.50497 7.80587 12.17 76.83562 -89.01958 12.53004 1.90759 77.55596 -5.14402 -11.89475 -118.57245 -15.46012 -4.38398 -3.43955 64.58314 3.9071 1.83728 -81.57119 -12.04161 3.66294 2.85731
0.30694 -0.19209 -0.01887 -175.37816 13.03221 -0.50396 10.40917 1.95266 0.11602 -34.37376 -0.04144 -0.83078 -42.9589 -22.42189 7.56 68.69741 94.90989 7.36434 1.01226 -53.44746 8.01494 11.50673 77.03211 -88.882 12.3871 1.92088 77.5452 -5.33425 -11.62368 -118.28969 -15.60825 -4.3945 -3.45461 64.96931 3.76595 1.64162 -83.10203 -11.85224 3.73484 2.88635
0.30679 -0.19199 -0.01863 -175.2018 12.82523 -0.43691 10.39939 1.99489 0.43258 -34.67575 -0.93015 -0.83078 -43.01946 -22.58227 7.79092 68.6696 92.48445 6.90719 0.28231 -53.36986 8.16232 10.82578 77.18429 -88.78868 12.25583 1.92237 77.36259 -5.57537 -11.29606 -117.81652 -15.72344 -4.41158 -3.4718 65.32472 3.63195 1.47873 -84.51521 -11.67586 3.79881 2.90935
0.30665 -0.19189 -0.01841 -175.04014 12.61152 -0.36773 10.39217 2.03094 0.73165 -34.98134 -1.83743 -0.83078 -43.04533 -22.71725 8.00914 68.62151 90.39332 6.47736 -0.34147 -53.29674 8.32854 10.16563 77.3427 -88.67404 12.11486 1.9294 77.25103 -5.78972 -10.99041 -117.41554 -15.84668 -4.42482 -3.48708 65.69751 3.49441 1.30322 -85.97826 -11.49669 3.8648 2.93447
0.30652 -0.1918 -0.01818 -174.88006 12.40183 -0.29709 10.37749 2.06502 1.02923 -35.29982 -2.76826 -0.83078 -43.07344 -22.88021 8.27021 68.5912 87.85886 6.0203 -1.12743 -53.24363 8.53277 9.44956 77.56096 -88.57996 11.99481 1.93309 77.16529 -6.02022 -10.69833 -117.06912 -15.99931 -4.44165 -3.50631 66.05549 3.35541 1.11462 -87.45336 -11.30445 3.93709 2.96203
0.30635 -0.1917 -0.01796 -174.70901 12.1865 -0.23094 10.37732 2.10675 1.3383 -35.58607 -3.63725 -0.83078 -43.11342 -22.99487 8.44368 68.53259 86.11983 5.60921 -1.61546 -53.14343 8.64407 8.8463 77.64384 -88.44809 11.83331 1.94187 76.98772 -6.22857 -10.36586 -116.56694 -16.08279 -4.45256 -3.51783 66.43774 3.22219 0.96222 -88.87573 -11.14292 3.99431 2.98303
0.30607 -0.19159 -0.0178 -174.51617 11.95503 -0.17475 10.42303 2.16516 1.67569 -35.80512 -4.34548 -0.83078 -43.18169 -22.96386 8.36712 68.38727 86.7803 5.34028 -1.19933 -52.92388 8.50693 8.56169 77.36038 -88.19555 11.5515 1.9681 76.58377 -6.36726 -9.92976 -115.67202 -15.98415 -4.44559 -3.50764 66.88747 3.10285 0.9044 -90.1914 -11.05764 4.01455 2.98881
0.30574 -0.19149 -0.01765 -174.3135 11.71688 -0.12303 10.48233 2.23082 2.02198 -35.9887 -4.99329 -0.83078 -43.25648 -22.88331 8.20332 68.21226 88.24325 5.11909 -0.48633 -52.65629 8.27999 8.39087 76.94253 -87.90239 11.22797 2.00013 76.09703 -6.48119 -9.4563 -114.62994 -15.81712 -4.43241 -3.48963 67.36389 2.98942 0.88209 -91.45604 -11.0037 4.01953 2.98801
0.30543 -0.19138 -0.01751 -174.1153 11.48022 -0.07014 10.53181 2.29389 2.35972 -36.17663 -5.67076 -0.83078 -43.31959 -22.82666 8.0835 68.05136 89.28694 4.87349 0.06073 -52.40734 8.0984 8.16663 76.58832 -87.62892 10.92484 2.02957 75.65753 -6.60374 -9.00405 -113.66129 -15.68059 -4.42203 -3.47513 67.83279 2.87401 0.8421 -92.73895 -10.9389 4.02982 2.98933
0.30513 -0.19127 -0.01732 -173.91601 11.25089 -0.01416 10.59668 2.355 2.71759 -36.41422 -6.33834 -0.83078 -43.42336 -22.76505 7.94524 67.88992 90.54558 4.63652 0.7324 -52.1724 7.89439 7.94955 76.22213 -87.35137 10.6152 2.05841 75.169 -6.73894 -8.53191 -112.65588 -15.54442 -4.41201 -3.46084 68.28149 2.75627 0.80898 -94.04147 -10.86047 4.04656 2.99401
0.3048 -0.19118 -0.01723 -173.71693 11.00406 0.03484 10.63269 2.42111 3.0355 -36.53952 -7.01134 -0.83078 -43.44146 -22.70217 7.82508 67.72101 91.551 4.395 1.21846 -51.89557 7.71791 7.74407 75.84906 -87.07294 10.31014 2.08995 74.76816 -6.84157 -8.09309 -111.69754 -15.39289 -4.39964 -3.44428 68.77857 2.64414 0.77046 -95.28882 -10.81748 4.04649 2.99031
